<mxfile host="app.diagrams.net" modified="2024-06-11T02:47:41.544Z" agent="Mozilla/5.0 (Windows NT 10.0; Win64; x64) AppleWebKit/537.36 (KHTML, like Gecko) Chrome/125.0.0.0 Safari/537.36" etag="_x5JKBOXDsDt23aAnt6A" version="24.5.2" type="google">
  <diagram name="Page-1" id="2YBvvXClWsGukQMizWep">
    <mxGraphModel grid="1" page="1" gridSize="10" guides="1" tooltips="1" connect="1" arrows="1" fold="1" pageScale="1" pageWidth="850" pageHeight="1100" math="0" shadow="0">
      <root>
        <mxCell id="0" />
        <mxCell id="1" parent="0" />
        <mxCell id="aM9ryv3xv72pqoxQDRHE-1" value="Administrador" style="shape=umlLifeline;perimeter=lifelinePerimeter;whiteSpace=wrap;html=1;container=0;dropTarget=0;collapsible=0;recursiveResize=0;outlineConnect=0;portConstraint=eastwest;newEdgeStyle={&quot;edgeStyle&quot;:&quot;elbowEdgeStyle&quot;,&quot;elbow&quot;:&quot;vertical&quot;,&quot;curved&quot;:0,&quot;rounded&quot;:0};" vertex="1" parent="1">
          <mxGeometry x="40" y="40" width="100" height="220" as="geometry" />
        </mxCell>
        <mxCell id="aM9ryv3xv72pqoxQDRHE-2" value="" style="html=1;points=[];perimeter=orthogonalPerimeter;outlineConnect=0;targetShapes=umlLifeline;portConstraint=eastwest;newEdgeStyle={&quot;edgeStyle&quot;:&quot;elbowEdgeStyle&quot;,&quot;elbow&quot;:&quot;vertical&quot;,&quot;curved&quot;:0,&quot;rounded&quot;:0};" vertex="1" parent="aM9ryv3xv72pqoxQDRHE-1">
          <mxGeometry x="45" y="70" width="10" height="110" as="geometry" />
        </mxCell>
        <mxCell id="aM9ryv3xv72pqoxQDRHE-3" value="Inicio" style="html=1;verticalAlign=bottom;startArrow=oval;endArrow=block;startSize=8;edgeStyle=elbowEdgeStyle;elbow=vertical;curved=0;rounded=0;" edge="1" parent="aM9ryv3xv72pqoxQDRHE-1" target="aM9ryv3xv72pqoxQDRHE-2">
          <mxGeometry relative="1" as="geometry">
            <mxPoint x="-15" y="70" as="sourcePoint" />
          </mxGeometry>
        </mxCell>
        <mxCell id="aM9ryv3xv72pqoxQDRHE-5" value="Sistema" style="shape=umlLifeline;perimeter=lifelinePerimeter;whiteSpace=wrap;html=1;container=0;dropTarget=0;collapsible=0;recursiveResize=0;outlineConnect=0;portConstraint=eastwest;newEdgeStyle={&quot;edgeStyle&quot;:&quot;elbowEdgeStyle&quot;,&quot;elbow&quot;:&quot;vertical&quot;,&quot;curved&quot;:0,&quot;rounded&quot;:0};" vertex="1" parent="1">
          <mxGeometry x="220" y="40" width="100" height="220" as="geometry" />
        </mxCell>
        <mxCell id="aM9ryv3xv72pqoxQDRHE-6" value="" style="html=1;points=[];perimeter=orthogonalPerimeter;outlineConnect=0;targetShapes=umlLifeline;portConstraint=eastwest;newEdgeStyle={&quot;edgeStyle&quot;:&quot;elbowEdgeStyle&quot;,&quot;elbow&quot;:&quot;vertical&quot;,&quot;curved&quot;:0,&quot;rounded&quot;:0};" vertex="1" parent="aM9ryv3xv72pqoxQDRHE-5">
          <mxGeometry x="45" y="80" width="10" height="100" as="geometry" />
        </mxCell>
        <mxCell id="aM9ryv3xv72pqoxQDRHE-7" value="Abre la acplicacion" style="html=1;verticalAlign=bottom;endArrow=block;edgeStyle=elbowEdgeStyle;elbow=vertical;curved=0;rounded=0;" edge="1" parent="1" source="aM9ryv3xv72pqoxQDRHE-2" target="aM9ryv3xv72pqoxQDRHE-6">
          <mxGeometry relative="1" as="geometry">
            <mxPoint x="195" y="130" as="sourcePoint" />
            <Array as="points">
              <mxPoint x="180" y="120" />
            </Array>
          </mxGeometry>
        </mxCell>
        <mxCell id="aM9ryv3xv72pqoxQDRHE-8" value="Muestra formulario de&lt;div&gt;autenticacion&lt;/div&gt;" style="html=1;verticalAlign=bottom;endArrow=open;dashed=1;endSize=8;edgeStyle=elbowEdgeStyle;elbow=vertical;curved=0;rounded=0;" edge="1" parent="1">
          <mxGeometry relative="1" as="geometry">
            <mxPoint x="100" y="170" as="targetPoint" />
            <Array as="points">
              <mxPoint x="195" y="170" />
            </Array>
            <mxPoint x="270" y="170" as="sourcePoint" />
          </mxGeometry>
        </mxCell>
        <mxCell id="Ypr0-TqBFgz9A--C2eyJ-1" value="&lt;font style=&quot;font-size: 18px;&quot;&gt;&lt;b&gt;Ingresar al Formulario de Autenticaci칩n&lt;/b&gt;&lt;/font&gt;" style="text;whiteSpace=wrap;html=1;" vertex="1" parent="1">
          <mxGeometry x="20" y="-10" width="350" height="40" as="geometry" />
        </mxCell>
        <mxCell id="Ypr0-TqBFgz9A--C2eyJ-2" value="Administrador" style="shape=umlLifeline;perimeter=lifelinePerimeter;whiteSpace=wrap;html=1;container=0;dropTarget=0;collapsible=0;recursiveResize=0;outlineConnect=0;portConstraint=eastwest;newEdgeStyle={&quot;edgeStyle&quot;:&quot;elbowEdgeStyle&quot;,&quot;elbow&quot;:&quot;vertical&quot;,&quot;curved&quot;:0,&quot;rounded&quot;:0};" vertex="1" parent="1">
          <mxGeometry x="430" y="40" width="100" height="250" as="geometry" />
        </mxCell>
        <mxCell id="Ypr0-TqBFgz9A--C2eyJ-3" value="" style="html=1;points=[];perimeter=orthogonalPerimeter;outlineConnect=0;targetShapes=umlLifeline;portConstraint=eastwest;newEdgeStyle={&quot;edgeStyle&quot;:&quot;elbowEdgeStyle&quot;,&quot;elbow&quot;:&quot;vertical&quot;,&quot;curved&quot;:0,&quot;rounded&quot;:0};" vertex="1" parent="Ypr0-TqBFgz9A--C2eyJ-2">
          <mxGeometry x="45" y="70" width="10" height="150" as="geometry" />
        </mxCell>
        <mxCell id="Ypr0-TqBFgz9A--C2eyJ-4" value="Inicio" style="html=1;verticalAlign=bottom;startArrow=oval;endArrow=block;startSize=8;edgeStyle=elbowEdgeStyle;elbow=vertical;curved=0;rounded=0;" edge="1" parent="Ypr0-TqBFgz9A--C2eyJ-2" target="Ypr0-TqBFgz9A--C2eyJ-3">
          <mxGeometry relative="1" as="geometry">
            <mxPoint x="-15" y="70" as="sourcePoint" />
          </mxGeometry>
        </mxCell>
        <mxCell id="Ypr0-TqBFgz9A--C2eyJ-5" value="Sistema" style="shape=umlLifeline;perimeter=lifelinePerimeter;whiteSpace=wrap;html=1;container=0;dropTarget=0;collapsible=0;recursiveResize=0;outlineConnect=0;portConstraint=eastwest;newEdgeStyle={&quot;edgeStyle&quot;:&quot;elbowEdgeStyle&quot;,&quot;elbow&quot;:&quot;vertical&quot;,&quot;curved&quot;:0,&quot;rounded&quot;:0};" vertex="1" parent="1">
          <mxGeometry x="610" y="40" width="100" height="250" as="geometry" />
        </mxCell>
        <mxCell id="Ypr0-TqBFgz9A--C2eyJ-6" value="" style="html=1;points=[];perimeter=orthogonalPerimeter;outlineConnect=0;targetShapes=umlLifeline;portConstraint=eastwest;newEdgeStyle={&quot;edgeStyle&quot;:&quot;elbowEdgeStyle&quot;,&quot;elbow&quot;:&quot;vertical&quot;,&quot;curved&quot;:0,&quot;rounded&quot;:0};" vertex="1" parent="Ypr0-TqBFgz9A--C2eyJ-5">
          <mxGeometry x="45" y="80" width="10" height="140" as="geometry" />
        </mxCell>
        <mxCell id="Ypr0-TqBFgz9A--C2eyJ-10" value="Valida las&amp;nbsp;&lt;div&gt;credenciales&lt;/div&gt;" style="html=1;verticalAlign=bottom;endArrow=block;edgeStyle=elbowEdgeStyle;elbow=vertical;curved=1;rounded=0;strokeWidth=1;entryX=0.5;entryY=0.2;entryDx=0;entryDy=0;entryPerimeter=0;" edge="1" parent="Ypr0-TqBFgz9A--C2eyJ-5" source="Ypr0-TqBFgz9A--C2eyJ-5" target="Ypr0-TqBFgz9A--C2eyJ-6">
          <mxGeometry relative="1" as="geometry">
            <mxPoint x="50" y="100" as="sourcePoint" />
            <Array as="points">
              <mxPoint x="130" y="80" />
            </Array>
            <mxPoint x="70" y="110" as="targetPoint" />
          </mxGeometry>
        </mxCell>
        <mxCell id="Ypr0-TqBFgz9A--C2eyJ-7" value="Ingresa nombre de usuario&lt;div&gt;y contrase침a&lt;/div&gt;" style="html=1;verticalAlign=bottom;endArrow=block;edgeStyle=elbowEdgeStyle;elbow=vertical;curved=0;rounded=0;" edge="1" parent="1" source="Ypr0-TqBFgz9A--C2eyJ-3" target="Ypr0-TqBFgz9A--C2eyJ-6">
          <mxGeometry relative="1" as="geometry">
            <mxPoint x="585" y="130" as="sourcePoint" />
            <Array as="points">
              <mxPoint x="570" y="120" />
            </Array>
          </mxGeometry>
        </mxCell>
        <mxCell id="Ypr0-TqBFgz9A--C2eyJ-8" value="&lt;div style=&quot;&quot;&gt;&lt;font style=&quot;font-size: 11px;&quot; face=&quot;trebuchet ms, verdana, arial, sans-serif&quot; color=&quot;#1f2937&quot;&gt;[C&lt;/font&gt;redenciales correctas]&lt;/div&gt;&lt;div style=&quot;&quot;&gt;Redirige al panel de&amp;nbsp;&lt;/div&gt;&lt;div style=&quot;&quot;&gt;administraci칩n&lt;/div&gt;" style="html=1;verticalAlign=bottom;endArrow=open;dashed=1;endSize=8;edgeStyle=elbowEdgeStyle;elbow=vertical;curved=0;rounded=0;align=center;" edge="1" parent="1">
          <mxGeometry relative="1" as="geometry">
            <mxPoint x="490" y="190" as="targetPoint" />
            <Array as="points">
              <mxPoint x="585" y="190" />
            </Array>
            <mxPoint x="660" y="190" as="sourcePoint" />
          </mxGeometry>
        </mxCell>
        <mxCell id="Ypr0-TqBFgz9A--C2eyJ-9" value="&lt;font style=&quot;font-size: 18px;&quot;&gt;&lt;b&gt;Ingresar Credenciales de Autenticaci칩n&lt;/b&gt;&lt;/font&gt;" style="text;whiteSpace=wrap;html=1;" vertex="1" parent="1">
          <mxGeometry x="410" y="-10" width="350" height="40" as="geometry" />
        </mxCell>
        <mxCell id="Ypr0-TqBFgz9A--C2eyJ-11" value="&lt;div style=&quot;&quot;&gt;&lt;font style=&quot;font-size: 11px;&quot; face=&quot;trebuchet ms, verdana, arial, sans-serif&quot; color=&quot;#1f2937&quot;&gt;[C&lt;/font&gt;redenciales incorrectas]&lt;/div&gt;&lt;div style=&quot;&quot;&gt;Muestra mensaje de error&lt;/div&gt;" style="html=1;verticalAlign=bottom;endArrow=open;dashed=1;endSize=8;edgeStyle=elbowEdgeStyle;elbow=vertical;curved=0;rounded=0;align=center;" edge="1" parent="1">
          <mxGeometry relative="1" as="geometry">
            <mxPoint x="490" y="240" as="targetPoint" />
            <Array as="points">
              <mxPoint x="585" y="240" />
            </Array>
            <mxPoint x="660" y="240" as="sourcePoint" />
          </mxGeometry>
        </mxCell>
        <mxCell id="Ypr0-TqBFgz9A--C2eyJ-12" value="Administrador" style="shape=umlLifeline;perimeter=lifelinePerimeter;whiteSpace=wrap;html=1;container=0;dropTarget=0;collapsible=0;recursiveResize=0;outlineConnect=0;portConstraint=eastwest;newEdgeStyle={&quot;edgeStyle&quot;:&quot;elbowEdgeStyle&quot;,&quot;elbow&quot;:&quot;vertical&quot;,&quot;curved&quot;:0,&quot;rounded&quot;:0};" vertex="1" parent="1">
          <mxGeometry x="40" y="350" width="100" height="220" as="geometry" />
        </mxCell>
        <mxCell id="Ypr0-TqBFgz9A--C2eyJ-13" value="" style="html=1;points=[];perimeter=orthogonalPerimeter;outlineConnect=0;targetShapes=umlLifeline;portConstraint=eastwest;newEdgeStyle={&quot;edgeStyle&quot;:&quot;elbowEdgeStyle&quot;,&quot;elbow&quot;:&quot;vertical&quot;,&quot;curved&quot;:0,&quot;rounded&quot;:0};" vertex="1" parent="Ypr0-TqBFgz9A--C2eyJ-12">
          <mxGeometry x="45" y="70" width="10" height="110" as="geometry" />
        </mxCell>
        <mxCell id="Ypr0-TqBFgz9A--C2eyJ-14" value="Inicio" style="html=1;verticalAlign=bottom;startArrow=oval;endArrow=block;startSize=8;edgeStyle=elbowEdgeStyle;elbow=vertical;curved=0;rounded=0;" edge="1" parent="Ypr0-TqBFgz9A--C2eyJ-12" target="Ypr0-TqBFgz9A--C2eyJ-13">
          <mxGeometry relative="1" as="geometry">
            <mxPoint x="-15" y="70" as="sourcePoint" />
          </mxGeometry>
        </mxCell>
        <mxCell id="Ypr0-TqBFgz9A--C2eyJ-15" value="Sistema" style="shape=umlLifeline;perimeter=lifelinePerimeter;whiteSpace=wrap;html=1;container=0;dropTarget=0;collapsible=0;recursiveResize=0;outlineConnect=0;portConstraint=eastwest;newEdgeStyle={&quot;edgeStyle&quot;:&quot;elbowEdgeStyle&quot;,&quot;elbow&quot;:&quot;vertical&quot;,&quot;curved&quot;:0,&quot;rounded&quot;:0};" vertex="1" parent="1">
          <mxGeometry x="220" y="350" width="100" height="220" as="geometry" />
        </mxCell>
        <mxCell id="Ypr0-TqBFgz9A--C2eyJ-16" value="" style="html=1;points=[];perimeter=orthogonalPerimeter;outlineConnect=0;targetShapes=umlLifeline;portConstraint=eastwest;newEdgeStyle={&quot;edgeStyle&quot;:&quot;elbowEdgeStyle&quot;,&quot;elbow&quot;:&quot;vertical&quot;,&quot;curved&quot;:0,&quot;rounded&quot;:0};" vertex="1" parent="Ypr0-TqBFgz9A--C2eyJ-15">
          <mxGeometry x="45" y="80" width="10" height="100" as="geometry" />
        </mxCell>
        <mxCell id="Ypr0-TqBFgz9A--C2eyJ-17" value="Selecciona la opcion&lt;div&gt;Gestionar Inventario&lt;/div&gt;" style="html=1;verticalAlign=bottom;endArrow=block;edgeStyle=elbowEdgeStyle;elbow=vertical;curved=0;rounded=0;" edge="1" parent="1">
          <mxGeometry relative="1" as="geometry">
            <mxPoint x="100" y="450" as="sourcePoint" />
            <Array as="points">
              <mxPoint x="185" y="450" />
            </Array>
            <mxPoint x="270.0000000000001" y="450" as="targetPoint" />
          </mxGeometry>
        </mxCell>
        <mxCell id="Ypr0-TqBFgz9A--C2eyJ-18" value="Muestra el inventario&lt;div&gt;actual&lt;/div&gt;" style="html=1;verticalAlign=bottom;endArrow=open;dashed=1;endSize=8;edgeStyle=elbowEdgeStyle;elbow=vertical;curved=0;rounded=0;" edge="1" parent="1">
          <mxGeometry relative="1" as="geometry">
            <mxPoint x="100" y="510" as="targetPoint" />
            <Array as="points">
              <mxPoint x="195" y="510" />
            </Array>
            <mxPoint x="270" y="510" as="sourcePoint" />
          </mxGeometry>
        </mxCell>
        <mxCell id="Ypr0-TqBFgz9A--C2eyJ-19" value="&lt;font style=&quot;font-size: 18px;&quot;&gt;&lt;b&gt;Selecciona la opci칩n Gestionar Inventario&lt;/b&gt;&lt;/font&gt;" style="text;whiteSpace=wrap;html=1;" vertex="1" parent="1">
          <mxGeometry x="20" y="300" width="370" height="40" as="geometry" />
        </mxCell>
        <mxCell id="Ypr0-TqBFgz9A--C2eyJ-20" value="Administrador" style="shape=umlLifeline;perimeter=lifelinePerimeter;whiteSpace=wrap;html=1;container=0;dropTarget=0;collapsible=0;recursiveResize=0;outlineConnect=0;portConstraint=eastwest;newEdgeStyle={&quot;edgeStyle&quot;:&quot;elbowEdgeStyle&quot;,&quot;elbow&quot;:&quot;vertical&quot;,&quot;curved&quot;:0,&quot;rounded&quot;:0};" vertex="1" parent="1">
          <mxGeometry x="440" y="350" width="100" height="220" as="geometry" />
        </mxCell>
        <mxCell id="Ypr0-TqBFgz9A--C2eyJ-21" value="" style="html=1;points=[];perimeter=orthogonalPerimeter;outlineConnect=0;targetShapes=umlLifeline;portConstraint=eastwest;newEdgeStyle={&quot;edgeStyle&quot;:&quot;elbowEdgeStyle&quot;,&quot;elbow&quot;:&quot;vertical&quot;,&quot;curved&quot;:0,&quot;rounded&quot;:0};" vertex="1" parent="Ypr0-TqBFgz9A--C2eyJ-20">
          <mxGeometry x="45" y="70" width="10" height="110" as="geometry" />
        </mxCell>
        <mxCell id="Ypr0-TqBFgz9A--C2eyJ-22" value="Inicio" style="html=1;verticalAlign=bottom;startArrow=oval;endArrow=block;startSize=8;edgeStyle=elbowEdgeStyle;elbow=vertical;curved=0;rounded=0;" edge="1" parent="Ypr0-TqBFgz9A--C2eyJ-20" target="Ypr0-TqBFgz9A--C2eyJ-21">
          <mxGeometry relative="1" as="geometry">
            <mxPoint x="-15" y="70" as="sourcePoint" />
          </mxGeometry>
        </mxCell>
        <mxCell id="Ypr0-TqBFgz9A--C2eyJ-23" value="Sistema" style="shape=umlLifeline;perimeter=lifelinePerimeter;whiteSpace=wrap;html=1;container=0;dropTarget=0;collapsible=0;recursiveResize=0;outlineConnect=0;portConstraint=eastwest;newEdgeStyle={&quot;edgeStyle&quot;:&quot;elbowEdgeStyle&quot;,&quot;elbow&quot;:&quot;vertical&quot;,&quot;curved&quot;:0,&quot;rounded&quot;:0};" vertex="1" parent="1">
          <mxGeometry x="620" y="350" width="100" height="220" as="geometry" />
        </mxCell>
        <mxCell id="Ypr0-TqBFgz9A--C2eyJ-24" value="" style="html=1;points=[];perimeter=orthogonalPerimeter;outlineConnect=0;targetShapes=umlLifeline;portConstraint=eastwest;newEdgeStyle={&quot;edgeStyle&quot;:&quot;elbowEdgeStyle&quot;,&quot;elbow&quot;:&quot;vertical&quot;,&quot;curved&quot;:0,&quot;rounded&quot;:0};" vertex="1" parent="Ypr0-TqBFgz9A--C2eyJ-23">
          <mxGeometry x="45" y="80" width="10" height="100" as="geometry" />
        </mxCell>
        <mxCell id="Ypr0-TqBFgz9A--C2eyJ-25" value="Selecciona la opcion&lt;div&gt;agregar nuevo producto&lt;/div&gt;" style="html=1;verticalAlign=bottom;endArrow=block;edgeStyle=elbowEdgeStyle;elbow=vertical;curved=0;rounded=0;" edge="1" parent="1">
          <mxGeometry relative="1" as="geometry">
            <mxPoint x="500" y="450" as="sourcePoint" />
            <Array as="points">
              <mxPoint x="585" y="450" />
            </Array>
            <mxPoint x="670.0000000000001" y="450" as="targetPoint" />
          </mxGeometry>
        </mxCell>
        <mxCell id="Ypr0-TqBFgz9A--C2eyJ-26" value="Muestra formulario para&amp;nbsp;&lt;div&gt;agregar nuevo producto&lt;/div&gt;" style="html=1;verticalAlign=bottom;endArrow=open;dashed=1;endSize=8;edgeStyle=elbowEdgeStyle;elbow=vertical;curved=0;rounded=0;" edge="1" parent="1">
          <mxGeometry relative="1" as="geometry">
            <mxPoint x="500" y="510" as="targetPoint" />
            <Array as="points">
              <mxPoint x="595" y="510" />
            </Array>
            <mxPoint x="670" y="510" as="sourcePoint" />
          </mxGeometry>
        </mxCell>
        <mxCell id="Ypr0-TqBFgz9A--C2eyJ-27" value="&lt;font style=&quot;font-size: 18px;&quot;&gt;&lt;b&gt;Seleccionar la Opci칩n Agregar Producto&lt;/b&gt;&lt;/font&gt;" style="text;whiteSpace=wrap;html=1;" vertex="1" parent="1">
          <mxGeometry x="420" y="300" width="370" height="40" as="geometry" />
        </mxCell>
        <mxCell id="Ypr0-TqBFgz9A--C2eyJ-28" value="Administrador" style="shape=umlLifeline;perimeter=lifelinePerimeter;whiteSpace=wrap;html=1;container=0;dropTarget=0;collapsible=0;recursiveResize=0;outlineConnect=0;portConstraint=eastwest;newEdgeStyle={&quot;edgeStyle&quot;:&quot;elbowEdgeStyle&quot;,&quot;elbow&quot;:&quot;vertical&quot;,&quot;curved&quot;:0,&quot;rounded&quot;:0};" vertex="1" parent="1">
          <mxGeometry x="820" y="350" width="100" height="250" as="geometry" />
        </mxCell>
        <mxCell id="Ypr0-TqBFgz9A--C2eyJ-29" value="" style="html=1;points=[];perimeter=orthogonalPerimeter;outlineConnect=0;targetShapes=umlLifeline;portConstraint=eastwest;newEdgeStyle={&quot;edgeStyle&quot;:&quot;elbowEdgeStyle&quot;,&quot;elbow&quot;:&quot;vertical&quot;,&quot;curved&quot;:0,&quot;rounded&quot;:0};" vertex="1" parent="Ypr0-TqBFgz9A--C2eyJ-28">
          <mxGeometry x="45" y="70" width="10" height="150" as="geometry" />
        </mxCell>
        <mxCell id="Ypr0-TqBFgz9A--C2eyJ-30" value="Inicio" style="html=1;verticalAlign=bottom;startArrow=oval;endArrow=block;startSize=8;edgeStyle=elbowEdgeStyle;elbow=vertical;curved=0;rounded=0;" edge="1" parent="Ypr0-TqBFgz9A--C2eyJ-28" target="Ypr0-TqBFgz9A--C2eyJ-29">
          <mxGeometry relative="1" as="geometry">
            <mxPoint x="-15" y="70" as="sourcePoint" />
          </mxGeometry>
        </mxCell>
        <mxCell id="Ypr0-TqBFgz9A--C2eyJ-31" value="Sistema" style="shape=umlLifeline;perimeter=lifelinePerimeter;whiteSpace=wrap;html=1;container=0;dropTarget=0;collapsible=0;recursiveResize=0;outlineConnect=0;portConstraint=eastwest;newEdgeStyle={&quot;edgeStyle&quot;:&quot;elbowEdgeStyle&quot;,&quot;elbow&quot;:&quot;vertical&quot;,&quot;curved&quot;:0,&quot;rounded&quot;:0};" vertex="1" parent="1">
          <mxGeometry x="1000" y="350" width="100" height="250" as="geometry" />
        </mxCell>
        <mxCell id="Ypr0-TqBFgz9A--C2eyJ-32" value="" style="html=1;points=[];perimeter=orthogonalPerimeter;outlineConnect=0;targetShapes=umlLifeline;portConstraint=eastwest;newEdgeStyle={&quot;edgeStyle&quot;:&quot;elbowEdgeStyle&quot;,&quot;elbow&quot;:&quot;vertical&quot;,&quot;curved&quot;:0,&quot;rounded&quot;:0};" vertex="1" parent="Ypr0-TqBFgz9A--C2eyJ-31">
          <mxGeometry x="45" y="80" width="10" height="140" as="geometry" />
        </mxCell>
        <mxCell id="Ypr0-TqBFgz9A--C2eyJ-33" value="Valida los datos" style="html=1;verticalAlign=bottom;endArrow=block;edgeStyle=elbowEdgeStyle;elbow=vertical;curved=1;rounded=0;strokeWidth=1;entryX=0.5;entryY=0.2;entryDx=0;entryDy=0;entryPerimeter=0;" edge="1" parent="Ypr0-TqBFgz9A--C2eyJ-31" source="Ypr0-TqBFgz9A--C2eyJ-31" target="Ypr0-TqBFgz9A--C2eyJ-32">
          <mxGeometry relative="1" as="geometry">
            <mxPoint x="50" y="100" as="sourcePoint" />
            <Array as="points">
              <mxPoint x="130" y="80" />
            </Array>
            <mxPoint x="70" y="110" as="targetPoint" />
          </mxGeometry>
        </mxCell>
        <mxCell id="Ypr0-TqBFgz9A--C2eyJ-34" value="Ingresa los detalles del&lt;div&gt;producto&lt;/div&gt;" style="html=1;verticalAlign=bottom;endArrow=block;edgeStyle=elbowEdgeStyle;elbow=vertical;curved=0;rounded=0;" edge="1" parent="1" source="Ypr0-TqBFgz9A--C2eyJ-29" target="Ypr0-TqBFgz9A--C2eyJ-32">
          <mxGeometry relative="1" as="geometry">
            <mxPoint x="975" y="440" as="sourcePoint" />
            <Array as="points">
              <mxPoint x="960" y="430" />
            </Array>
          </mxGeometry>
        </mxCell>
        <mxCell id="Ypr0-TqBFgz9A--C2eyJ-35" value="&lt;div style=&quot;&quot;&gt;&lt;font style=&quot;font-size: 11px;&quot; face=&quot;trebuchet ms, verdana, arial, sans-serif&quot; color=&quot;#1f2937&quot;&gt;[Datos correctos&lt;/font&gt;]&lt;/div&gt;&lt;div style=&quot;&quot;&gt;Guarda el nuevo producto&lt;/div&gt;&lt;div style=&quot;&quot;&gt;en el inventario&lt;/div&gt;" style="html=1;verticalAlign=bottom;endArrow=open;dashed=1;endSize=8;edgeStyle=elbowEdgeStyle;elbow=vertical;curved=0;rounded=0;align=center;" edge="1" parent="1">
          <mxGeometry relative="1" as="geometry">
            <mxPoint x="880" y="500" as="targetPoint" />
            <Array as="points">
              <mxPoint x="975" y="500" />
            </Array>
            <mxPoint x="1050" y="500" as="sourcePoint" />
          </mxGeometry>
        </mxCell>
        <mxCell id="Ypr0-TqBFgz9A--C2eyJ-36" value="&lt;font style=&quot;font-size: 18px;&quot;&gt;&lt;b&gt;Ingresar los Detalles del Producto&lt;/b&gt;&lt;/font&gt;" style="text;whiteSpace=wrap;html=1;" vertex="1" parent="1">
          <mxGeometry x="800" y="300" width="350" height="40" as="geometry" />
        </mxCell>
        <mxCell id="Ypr0-TqBFgz9A--C2eyJ-37" value="&lt;div style=&quot;&quot;&gt;&lt;font style=&quot;font-size: 11px;&quot; face=&quot;trebuchet ms, verdana, arial, sans-serif&quot; color=&quot;#1f2937&quot;&gt;[Datos Incorrectos&lt;/font&gt;]&lt;/div&gt;&lt;div style=&quot;&quot;&gt;Muestra mensaje de error&lt;/div&gt;" style="html=1;verticalAlign=bottom;endArrow=open;dashed=1;endSize=8;edgeStyle=elbowEdgeStyle;elbow=vertical;curved=0;rounded=0;align=center;" edge="1" parent="1">
          <mxGeometry relative="1" as="geometry">
            <mxPoint x="880" y="550" as="targetPoint" />
            <Array as="points">
              <mxPoint x="975" y="550" />
            </Array>
            <mxPoint x="1050" y="550" as="sourcePoint" />
          </mxGeometry>
        </mxCell>
        <mxCell id="Ypr0-TqBFgz9A--C2eyJ-38" value="Administrador" style="shape=umlLifeline;perimeter=lifelinePerimeter;whiteSpace=wrap;html=1;container=0;dropTarget=0;collapsible=0;recursiveResize=0;outlineConnect=0;portConstraint=eastwest;newEdgeStyle={&quot;edgeStyle&quot;:&quot;elbowEdgeStyle&quot;,&quot;elbow&quot;:&quot;vertical&quot;,&quot;curved&quot;:0,&quot;rounded&quot;:0};" vertex="1" parent="1">
          <mxGeometry x="40" y="630" width="100" height="220" as="geometry" />
        </mxCell>
        <mxCell id="Ypr0-TqBFgz9A--C2eyJ-39" value="" style="html=1;points=[];perimeter=orthogonalPerimeter;outlineConnect=0;targetShapes=umlLifeline;portConstraint=eastwest;newEdgeStyle={&quot;edgeStyle&quot;:&quot;elbowEdgeStyle&quot;,&quot;elbow&quot;:&quot;vertical&quot;,&quot;curved&quot;:0,&quot;rounded&quot;:0};" vertex="1" parent="Ypr0-TqBFgz9A--C2eyJ-38">
          <mxGeometry x="45" y="70" width="10" height="110" as="geometry" />
        </mxCell>
        <mxCell id="Ypr0-TqBFgz9A--C2eyJ-40" value="Inicio" style="html=1;verticalAlign=bottom;startArrow=oval;endArrow=block;startSize=8;edgeStyle=elbowEdgeStyle;elbow=vertical;curved=0;rounded=0;" edge="1" parent="Ypr0-TqBFgz9A--C2eyJ-38" target="Ypr0-TqBFgz9A--C2eyJ-39">
          <mxGeometry relative="1" as="geometry">
            <mxPoint x="-15" y="70" as="sourcePoint" />
          </mxGeometry>
        </mxCell>
        <mxCell id="Ypr0-TqBFgz9A--C2eyJ-41" value="Sistema" style="shape=umlLifeline;perimeter=lifelinePerimeter;whiteSpace=wrap;html=1;container=0;dropTarget=0;collapsible=0;recursiveResize=0;outlineConnect=0;portConstraint=eastwest;newEdgeStyle={&quot;edgeStyle&quot;:&quot;elbowEdgeStyle&quot;,&quot;elbow&quot;:&quot;vertical&quot;,&quot;curved&quot;:0,&quot;rounded&quot;:0};" vertex="1" parent="1">
          <mxGeometry x="220" y="630" width="100" height="220" as="geometry" />
        </mxCell>
        <mxCell id="Ypr0-TqBFgz9A--C2eyJ-42" value="" style="html=1;points=[];perimeter=orthogonalPerimeter;outlineConnect=0;targetShapes=umlLifeline;portConstraint=eastwest;newEdgeStyle={&quot;edgeStyle&quot;:&quot;elbowEdgeStyle&quot;,&quot;elbow&quot;:&quot;vertical&quot;,&quot;curved&quot;:0,&quot;rounded&quot;:0};" vertex="1" parent="Ypr0-TqBFgz9A--C2eyJ-41">
          <mxGeometry x="45" y="80" width="10" height="100" as="geometry" />
        </mxCell>
        <mxCell id="Ypr0-TqBFgz9A--C2eyJ-43" value="Selecciona la opcion&lt;div&gt;modificar producto&lt;/div&gt;" style="html=1;verticalAlign=bottom;endArrow=block;edgeStyle=elbowEdgeStyle;elbow=vertical;curved=0;rounded=0;" edge="1" parent="1">
          <mxGeometry relative="1" as="geometry">
            <mxPoint x="100" y="730" as="sourcePoint" />
            <Array as="points">
              <mxPoint x="185" y="730" />
            </Array>
            <mxPoint x="270.0000000000001" y="730" as="targetPoint" />
          </mxGeometry>
        </mxCell>
        <mxCell id="Ypr0-TqBFgz9A--C2eyJ-44" value="Muestra formulario con la&lt;div&gt;informacion del producto&lt;/div&gt;" style="html=1;verticalAlign=bottom;endArrow=open;dashed=1;endSize=8;edgeStyle=elbowEdgeStyle;elbow=vertical;curved=0;rounded=0;" edge="1" parent="1">
          <mxGeometry relative="1" as="geometry">
            <mxPoint x="100" y="790" as="targetPoint" />
            <Array as="points">
              <mxPoint x="195" y="790" />
            </Array>
            <mxPoint x="270" y="790" as="sourcePoint" />
          </mxGeometry>
        </mxCell>
        <mxCell id="Ypr0-TqBFgz9A--C2eyJ-45" value="&lt;font style=&quot;font-size: 18px;&quot;&gt;&lt;b&gt;Seleccionar la Opci칩n Modificar Producto&lt;/b&gt;&lt;/font&gt;" style="text;whiteSpace=wrap;html=1;" vertex="1" parent="1">
          <mxGeometry x="20" y="580" width="370" height="40" as="geometry" />
        </mxCell>
        <mxCell id="Ypr0-TqBFgz9A--C2eyJ-56" value="Administrador" style="shape=umlLifeline;perimeter=lifelinePerimeter;whiteSpace=wrap;html=1;container=0;dropTarget=0;collapsible=0;recursiveResize=0;outlineConnect=0;portConstraint=eastwest;newEdgeStyle={&quot;edgeStyle&quot;:&quot;elbowEdgeStyle&quot;,&quot;elbow&quot;:&quot;vertical&quot;,&quot;curved&quot;:0,&quot;rounded&quot;:0};" vertex="1" parent="1">
          <mxGeometry x="450" y="630" width="100" height="250" as="geometry" />
        </mxCell>
        <mxCell id="Ypr0-TqBFgz9A--C2eyJ-57" value="" style="html=1;points=[];perimeter=orthogonalPerimeter;outlineConnect=0;targetShapes=umlLifeline;portConstraint=eastwest;newEdgeStyle={&quot;edgeStyle&quot;:&quot;elbowEdgeStyle&quot;,&quot;elbow&quot;:&quot;vertical&quot;,&quot;curved&quot;:0,&quot;rounded&quot;:0};" vertex="1" parent="Ypr0-TqBFgz9A--C2eyJ-56">
          <mxGeometry x="45" y="70" width="10" height="150" as="geometry" />
        </mxCell>
        <mxCell id="Ypr0-TqBFgz9A--C2eyJ-58" value="Inicio" style="html=1;verticalAlign=bottom;startArrow=oval;endArrow=block;startSize=8;edgeStyle=elbowEdgeStyle;elbow=vertical;curved=0;rounded=0;" edge="1" parent="Ypr0-TqBFgz9A--C2eyJ-56" target="Ypr0-TqBFgz9A--C2eyJ-57">
          <mxGeometry relative="1" as="geometry">
            <mxPoint x="-15" y="70" as="sourcePoint" />
          </mxGeometry>
        </mxCell>
        <mxCell id="Ypr0-TqBFgz9A--C2eyJ-59" value="Sistema" style="shape=umlLifeline;perimeter=lifelinePerimeter;whiteSpace=wrap;html=1;container=0;dropTarget=0;collapsible=0;recursiveResize=0;outlineConnect=0;portConstraint=eastwest;newEdgeStyle={&quot;edgeStyle&quot;:&quot;elbowEdgeStyle&quot;,&quot;elbow&quot;:&quot;vertical&quot;,&quot;curved&quot;:0,&quot;rounded&quot;:0};" vertex="1" parent="1">
          <mxGeometry x="630" y="630" width="100" height="250" as="geometry" />
        </mxCell>
        <mxCell id="Ypr0-TqBFgz9A--C2eyJ-60" value="" style="html=1;points=[];perimeter=orthogonalPerimeter;outlineConnect=0;targetShapes=umlLifeline;portConstraint=eastwest;newEdgeStyle={&quot;edgeStyle&quot;:&quot;elbowEdgeStyle&quot;,&quot;elbow&quot;:&quot;vertical&quot;,&quot;curved&quot;:0,&quot;rounded&quot;:0};" vertex="1" parent="Ypr0-TqBFgz9A--C2eyJ-59">
          <mxGeometry x="45" y="80" width="10" height="140" as="geometry" />
        </mxCell>
        <mxCell id="Ypr0-TqBFgz9A--C2eyJ-61" value="Valida los datos" style="html=1;verticalAlign=bottom;endArrow=block;edgeStyle=elbowEdgeStyle;elbow=vertical;curved=1;rounded=0;strokeWidth=1;entryX=0.5;entryY=0.2;entryDx=0;entryDy=0;entryPerimeter=0;" edge="1" parent="Ypr0-TqBFgz9A--C2eyJ-59" source="Ypr0-TqBFgz9A--C2eyJ-59" target="Ypr0-TqBFgz9A--C2eyJ-60">
          <mxGeometry relative="1" as="geometry">
            <mxPoint x="50" y="100" as="sourcePoint" />
            <Array as="points">
              <mxPoint x="130" y="80" />
            </Array>
            <mxPoint x="70" y="110" as="targetPoint" />
          </mxGeometry>
        </mxCell>
        <mxCell id="Ypr0-TqBFgz9A--C2eyJ-62" value="Cambia los datos del producto" style="html=1;verticalAlign=bottom;endArrow=block;edgeStyle=elbowEdgeStyle;elbow=vertical;curved=0;rounded=0;" edge="1" parent="1" source="Ypr0-TqBFgz9A--C2eyJ-57" target="Ypr0-TqBFgz9A--C2eyJ-60">
          <mxGeometry relative="1" as="geometry">
            <mxPoint x="605" y="720" as="sourcePoint" />
            <Array as="points">
              <mxPoint x="590" y="710" />
            </Array>
          </mxGeometry>
        </mxCell>
        <mxCell id="Ypr0-TqBFgz9A--C2eyJ-63" value="&lt;div style=&quot;&quot;&gt;&lt;font style=&quot;font-size: 11px;&quot; face=&quot;trebuchet ms, verdana, arial, sans-serif&quot; color=&quot;#1f2937&quot;&gt;[Datos correctos&lt;/font&gt;]&lt;/div&gt;&lt;div style=&quot;&quot;&gt;Guarda los cambios del&lt;/div&gt;&lt;div style=&quot;&quot;&gt;producto en inventario&lt;/div&gt;" style="html=1;verticalAlign=bottom;endArrow=open;dashed=1;endSize=8;edgeStyle=elbowEdgeStyle;elbow=vertical;curved=0;rounded=0;align=center;" edge="1" parent="1">
          <mxGeometry relative="1" as="geometry">
            <mxPoint x="510" y="780" as="targetPoint" />
            <Array as="points">
              <mxPoint x="605" y="780" />
            </Array>
            <mxPoint x="680" y="780" as="sourcePoint" />
          </mxGeometry>
        </mxCell>
        <mxCell id="Ypr0-TqBFgz9A--C2eyJ-64" value="&lt;font style=&quot;font-size: 18px;&quot;&gt;&lt;b&gt;Cambiar la informacion del Producto&lt;/b&gt;&lt;/font&gt;" style="text;whiteSpace=wrap;html=1;" vertex="1" parent="1">
          <mxGeometry x="430" y="580" width="350" height="40" as="geometry" />
        </mxCell>
        <mxCell id="Ypr0-TqBFgz9A--C2eyJ-65" value="&lt;div style=&quot;&quot;&gt;&lt;font style=&quot;font-size: 11px;&quot; face=&quot;trebuchet ms, verdana, arial, sans-serif&quot; color=&quot;#1f2937&quot;&gt;[Datos Incorrectos&lt;/font&gt;]&lt;/div&gt;&lt;div style=&quot;&quot;&gt;Muestra mensaje de error&lt;/div&gt;" style="html=1;verticalAlign=bottom;endArrow=open;dashed=1;endSize=8;edgeStyle=elbowEdgeStyle;elbow=vertical;curved=0;rounded=0;align=center;" edge="1" parent="1">
          <mxGeometry relative="1" as="geometry">
            <mxPoint x="510" y="830" as="targetPoint" />
            <Array as="points">
              <mxPoint x="605" y="830" />
            </Array>
            <mxPoint x="680" y="830" as="sourcePoint" />
          </mxGeometry>
        </mxCell>
        <mxCell id="Ypr0-TqBFgz9A--C2eyJ-66" value="Administrador" style="shape=umlLifeline;perimeter=lifelinePerimeter;whiteSpace=wrap;html=1;container=0;dropTarget=0;collapsible=0;recursiveResize=0;outlineConnect=0;portConstraint=eastwest;newEdgeStyle={&quot;edgeStyle&quot;:&quot;elbowEdgeStyle&quot;,&quot;elbow&quot;:&quot;vertical&quot;,&quot;curved&quot;:0,&quot;rounded&quot;:0};" vertex="1" parent="1">
          <mxGeometry x="40" y="940" width="100" height="220" as="geometry" />
        </mxCell>
        <mxCell id="Ypr0-TqBFgz9A--C2eyJ-67" value="" style="html=1;points=[];perimeter=orthogonalPerimeter;outlineConnect=0;targetShapes=umlLifeline;portConstraint=eastwest;newEdgeStyle={&quot;edgeStyle&quot;:&quot;elbowEdgeStyle&quot;,&quot;elbow&quot;:&quot;vertical&quot;,&quot;curved&quot;:0,&quot;rounded&quot;:0};" vertex="1" parent="Ypr0-TqBFgz9A--C2eyJ-66">
          <mxGeometry x="45" y="70" width="10" height="110" as="geometry" />
        </mxCell>
        <mxCell id="Ypr0-TqBFgz9A--C2eyJ-68" value="Inicio" style="html=1;verticalAlign=bottom;startArrow=oval;endArrow=block;startSize=8;edgeStyle=elbowEdgeStyle;elbow=vertical;curved=0;rounded=0;" edge="1" parent="Ypr0-TqBFgz9A--C2eyJ-66" target="Ypr0-TqBFgz9A--C2eyJ-67">
          <mxGeometry relative="1" as="geometry">
            <mxPoint x="-15" y="70" as="sourcePoint" />
          </mxGeometry>
        </mxCell>
        <mxCell id="Ypr0-TqBFgz9A--C2eyJ-69" value="Sistema" style="shape=umlLifeline;perimeter=lifelinePerimeter;whiteSpace=wrap;html=1;container=0;dropTarget=0;collapsible=0;recursiveResize=0;outlineConnect=0;portConstraint=eastwest;newEdgeStyle={&quot;edgeStyle&quot;:&quot;elbowEdgeStyle&quot;,&quot;elbow&quot;:&quot;vertical&quot;,&quot;curved&quot;:0,&quot;rounded&quot;:0};" vertex="1" parent="1">
          <mxGeometry x="220" y="940" width="100" height="220" as="geometry" />
        </mxCell>
        <mxCell id="Ypr0-TqBFgz9A--C2eyJ-70" value="" style="html=1;points=[];perimeter=orthogonalPerimeter;outlineConnect=0;targetShapes=umlLifeline;portConstraint=eastwest;newEdgeStyle={&quot;edgeStyle&quot;:&quot;elbowEdgeStyle&quot;,&quot;elbow&quot;:&quot;vertical&quot;,&quot;curved&quot;:0,&quot;rounded&quot;:0};" vertex="1" parent="Ypr0-TqBFgz9A--C2eyJ-69">
          <mxGeometry x="45" y="80" width="10" height="100" as="geometry" />
        </mxCell>
        <mxCell id="Ypr0-TqBFgz9A--C2eyJ-71" value="Selecciona un producto&lt;div&gt;para ser eliminado&lt;/div&gt;" style="html=1;verticalAlign=bottom;endArrow=block;edgeStyle=elbowEdgeStyle;elbow=vertical;curved=0;rounded=0;" edge="1" parent="1">
          <mxGeometry relative="1" as="geometry">
            <mxPoint x="100" y="1040" as="sourcePoint" />
            <Array as="points">
              <mxPoint x="185" y="1040" />
            </Array>
            <mxPoint x="270.0000000000001" y="1040" as="targetPoint" />
          </mxGeometry>
        </mxCell>
        <mxCell id="Ypr0-TqBFgz9A--C2eyJ-72" value="Presenta mensaje de&amp;nbsp;&lt;div&gt;confirmaci칩n para eliminar&lt;/div&gt;&lt;div&gt;producto&lt;/div&gt;" style="html=1;verticalAlign=bottom;endArrow=open;dashed=1;endSize=8;edgeStyle=elbowEdgeStyle;elbow=vertical;curved=0;rounded=0;" edge="1" parent="1">
          <mxGeometry relative="1" as="geometry">
            <mxPoint x="100" y="1100" as="targetPoint" />
            <Array as="points">
              <mxPoint x="195" y="1100" />
            </Array>
            <mxPoint x="270" y="1100" as="sourcePoint" />
          </mxGeometry>
        </mxCell>
        <mxCell id="Ypr0-TqBFgz9A--C2eyJ-73" value="&lt;font style=&quot;font-size: 18px;&quot;&gt;&lt;b&gt;Seleccionar un producto para eliminar&lt;/b&gt;&lt;/font&gt;" style="text;whiteSpace=wrap;html=1;" vertex="1" parent="1">
          <mxGeometry x="20" y="890" width="370" height="40" as="geometry" />
        </mxCell>
        <mxCell id="Ypr0-TqBFgz9A--C2eyJ-74" value="Administrador" style="shape=umlLifeline;perimeter=lifelinePerimeter;whiteSpace=wrap;html=1;container=0;dropTarget=0;collapsible=0;recursiveResize=0;outlineConnect=0;portConstraint=eastwest;newEdgeStyle={&quot;edgeStyle&quot;:&quot;elbowEdgeStyle&quot;,&quot;elbow&quot;:&quot;vertical&quot;,&quot;curved&quot;:0,&quot;rounded&quot;:0};" vertex="1" parent="1">
          <mxGeometry x="445" y="940" width="100" height="250" as="geometry" />
        </mxCell>
        <mxCell id="Ypr0-TqBFgz9A--C2eyJ-75" value="" style="html=1;points=[];perimeter=orthogonalPerimeter;outlineConnect=0;targetShapes=umlLifeline;portConstraint=eastwest;newEdgeStyle={&quot;edgeStyle&quot;:&quot;elbowEdgeStyle&quot;,&quot;elbow&quot;:&quot;vertical&quot;,&quot;curved&quot;:0,&quot;rounded&quot;:0};" vertex="1" parent="Ypr0-TqBFgz9A--C2eyJ-74">
          <mxGeometry x="45" y="70" width="10" height="150" as="geometry" />
        </mxCell>
        <mxCell id="Ypr0-TqBFgz9A--C2eyJ-76" value="Inicio" style="html=1;verticalAlign=bottom;startArrow=oval;endArrow=block;startSize=8;edgeStyle=elbowEdgeStyle;elbow=vertical;curved=0;rounded=0;" edge="1" parent="Ypr0-TqBFgz9A--C2eyJ-74" target="Ypr0-TqBFgz9A--C2eyJ-75">
          <mxGeometry relative="1" as="geometry">
            <mxPoint x="-15" y="70" as="sourcePoint" />
          </mxGeometry>
        </mxCell>
        <mxCell id="Ypr0-TqBFgz9A--C2eyJ-77" value="Sistema" style="shape=umlLifeline;perimeter=lifelinePerimeter;whiteSpace=wrap;html=1;container=0;dropTarget=0;collapsible=0;recursiveResize=0;outlineConnect=0;portConstraint=eastwest;newEdgeStyle={&quot;edgeStyle&quot;:&quot;elbowEdgeStyle&quot;,&quot;elbow&quot;:&quot;vertical&quot;,&quot;curved&quot;:0,&quot;rounded&quot;:0};" vertex="1" parent="1">
          <mxGeometry x="625" y="940" width="100" height="250" as="geometry" />
        </mxCell>
        <mxCell id="Ypr0-TqBFgz9A--C2eyJ-78" value="" style="html=1;points=[];perimeter=orthogonalPerimeter;outlineConnect=0;targetShapes=umlLifeline;portConstraint=eastwest;newEdgeStyle={&quot;edgeStyle&quot;:&quot;elbowEdgeStyle&quot;,&quot;elbow&quot;:&quot;vertical&quot;,&quot;curved&quot;:0,&quot;rounded&quot;:0};" vertex="1" parent="Ypr0-TqBFgz9A--C2eyJ-77">
          <mxGeometry x="45" y="80" width="10" height="140" as="geometry" />
        </mxCell>
        <mxCell id="Ypr0-TqBFgz9A--C2eyJ-80" value="Confirma eliminacion" style="html=1;verticalAlign=bottom;endArrow=block;edgeStyle=elbowEdgeStyle;elbow=vertical;curved=0;rounded=0;" edge="1" parent="1" source="Ypr0-TqBFgz9A--C2eyJ-75" target="Ypr0-TqBFgz9A--C2eyJ-78">
          <mxGeometry relative="1" as="geometry">
            <mxPoint x="600" y="1030" as="sourcePoint" />
            <Array as="points">
              <mxPoint x="585" y="1020" />
            </Array>
          </mxGeometry>
        </mxCell>
        <mxCell id="Ypr0-TqBFgz9A--C2eyJ-81" value="&lt;div style=&quot;&quot;&gt;&lt;font style=&quot;font-size: 11px;&quot; face=&quot;trebuchet ms, verdana, arial, sans-serif&quot; color=&quot;#1f2937&quot;&gt;[Eliminacion confirmada&lt;/font&gt;]&lt;/div&gt;&lt;div style=&quot;&quot;&gt;Elimina el producto&lt;/div&gt;&lt;div style=&quot;&quot;&gt;del inventario&lt;/div&gt;" style="html=1;verticalAlign=bottom;endArrow=open;dashed=1;endSize=8;edgeStyle=elbowEdgeStyle;elbow=vertical;curved=0;rounded=0;align=center;" edge="1" parent="1">
          <mxGeometry relative="1" as="geometry">
            <mxPoint x="505" y="1090" as="targetPoint" />
            <Array as="points">
              <mxPoint x="600" y="1090" />
            </Array>
            <mxPoint x="675" y="1090" as="sourcePoint" />
          </mxGeometry>
        </mxCell>
        <mxCell id="Ypr0-TqBFgz9A--C2eyJ-82" value="&lt;font style=&quot;font-size: 18px;&quot;&gt;&lt;b&gt;Confirmar Eliminaci칩n&lt;/b&gt;&lt;/font&gt;" style="text;whiteSpace=wrap;html=1;" vertex="1" parent="1">
          <mxGeometry x="425" y="890" width="350" height="40" as="geometry" />
        </mxCell>
        <mxCell id="Ypr0-TqBFgz9A--C2eyJ-83" value="&lt;div style=&quot;&quot;&gt;&lt;font style=&quot;font-size: 11px;&quot; face=&quot;trebuchet ms, verdana, arial, sans-serif&quot; color=&quot;#1f2937&quot;&gt;[Eliminaci칩n cancelada&lt;/font&gt;]&lt;/div&gt;&lt;div style=&quot;&quot;&gt;Muestra mensaje de eliminaci칩n&lt;/div&gt;&lt;div style=&quot;&quot;&gt;cancelada&lt;/div&gt;" style="html=1;verticalAlign=bottom;endArrow=open;dashed=1;endSize=8;edgeStyle=elbowEdgeStyle;elbow=vertical;curved=0;rounded=0;align=center;" edge="1" parent="1">
          <mxGeometry relative="1" as="geometry">
            <mxPoint x="505" y="1140" as="targetPoint" />
            <Array as="points">
              <mxPoint x="600" y="1140" />
            </Array>
            <mxPoint x="675" y="1140" as="sourcePoint" />
          </mxGeometry>
        </mxCell>
        <mxCell id="Ypr0-TqBFgz9A--C2eyJ-84" value="Administrador" style="shape=umlLifeline;perimeter=lifelinePerimeter;whiteSpace=wrap;html=1;container=0;dropTarget=0;collapsible=0;recursiveResize=0;outlineConnect=0;portConstraint=eastwest;newEdgeStyle={&quot;edgeStyle&quot;:&quot;elbowEdgeStyle&quot;,&quot;elbow&quot;:&quot;vertical&quot;,&quot;curved&quot;:0,&quot;rounded&quot;:0};" vertex="1" parent="1">
          <mxGeometry x="50" y="1250" width="100" height="220" as="geometry" />
        </mxCell>
        <mxCell id="Ypr0-TqBFgz9A--C2eyJ-85" value="" style="html=1;points=[];perimeter=orthogonalPerimeter;outlineConnect=0;targetShapes=umlLifeline;portConstraint=eastwest;newEdgeStyle={&quot;edgeStyle&quot;:&quot;elbowEdgeStyle&quot;,&quot;elbow&quot;:&quot;vertical&quot;,&quot;curved&quot;:0,&quot;rounded&quot;:0};" vertex="1" parent="Ypr0-TqBFgz9A--C2eyJ-84">
          <mxGeometry x="45" y="70" width="10" height="110" as="geometry" />
        </mxCell>
        <mxCell id="Ypr0-TqBFgz9A--C2eyJ-86" value="Inicio" style="html=1;verticalAlign=bottom;startArrow=oval;endArrow=block;startSize=8;edgeStyle=elbowEdgeStyle;elbow=vertical;curved=0;rounded=0;" edge="1" parent="Ypr0-TqBFgz9A--C2eyJ-84" target="Ypr0-TqBFgz9A--C2eyJ-85">
          <mxGeometry relative="1" as="geometry">
            <mxPoint x="-15" y="70" as="sourcePoint" />
          </mxGeometry>
        </mxCell>
        <mxCell id="Ypr0-TqBFgz9A--C2eyJ-87" value="Sistema" style="shape=umlLifeline;perimeter=lifelinePerimeter;whiteSpace=wrap;html=1;container=0;dropTarget=0;collapsible=0;recursiveResize=0;outlineConnect=0;portConstraint=eastwest;newEdgeStyle={&quot;edgeStyle&quot;:&quot;elbowEdgeStyle&quot;,&quot;elbow&quot;:&quot;vertical&quot;,&quot;curved&quot;:0,&quot;rounded&quot;:0};" vertex="1" parent="1">
          <mxGeometry x="230" y="1250" width="100" height="220" as="geometry" />
        </mxCell>
        <mxCell id="Ypr0-TqBFgz9A--C2eyJ-88" value="" style="html=1;points=[];perimeter=orthogonalPerimeter;outlineConnect=0;targetShapes=umlLifeline;portConstraint=eastwest;newEdgeStyle={&quot;edgeStyle&quot;:&quot;elbowEdgeStyle&quot;,&quot;elbow&quot;:&quot;vertical&quot;,&quot;curved&quot;:0,&quot;rounded&quot;:0};" vertex="1" parent="Ypr0-TqBFgz9A--C2eyJ-87">
          <mxGeometry x="45" y="80" width="10" height="100" as="geometry" />
        </mxCell>
        <mxCell id="Ypr0-TqBFgz9A--C2eyJ-89" value="Selecciona la opcion&lt;div&gt;gestionar cuenta&lt;/div&gt;" style="html=1;verticalAlign=bottom;endArrow=block;edgeStyle=elbowEdgeStyle;elbow=vertical;curved=0;rounded=0;" edge="1" parent="1">
          <mxGeometry relative="1" as="geometry">
            <mxPoint x="110" y="1350" as="sourcePoint" />
            <Array as="points">
              <mxPoint x="195" y="1350" />
            </Array>
            <mxPoint x="280.0000000000001" y="1350" as="targetPoint" />
          </mxGeometry>
        </mxCell>
        <mxCell id="Ypr0-TqBFgz9A--C2eyJ-90" value="Muestra la informaci칩n&lt;div&gt;actual de la cuenta&lt;/div&gt;" style="html=1;verticalAlign=bottom;endArrow=open;dashed=1;endSize=8;edgeStyle=elbowEdgeStyle;elbow=vertical;curved=0;rounded=0;" edge="1" parent="1">
          <mxGeometry relative="1" as="geometry">
            <mxPoint x="110" y="1410" as="targetPoint" />
            <Array as="points">
              <mxPoint x="205" y="1410" />
            </Array>
            <mxPoint x="280" y="1410" as="sourcePoint" />
          </mxGeometry>
        </mxCell>
        <mxCell id="Ypr0-TqBFgz9A--C2eyJ-91" value="&lt;font style=&quot;font-size: 18px;&quot;&gt;&lt;b&gt;Seleccionar la Opci칩n Gestionar cuenta&lt;/b&gt;&lt;/font&gt;" style="text;whiteSpace=wrap;html=1;" vertex="1" parent="1">
          <mxGeometry x="30" y="1200" width="370" height="40" as="geometry" />
        </mxCell>
        <mxCell id="Ypr0-TqBFgz9A--C2eyJ-92" value="Administrador" style="shape=umlLifeline;perimeter=lifelinePerimeter;whiteSpace=wrap;html=1;container=0;dropTarget=0;collapsible=0;recursiveResize=0;outlineConnect=0;portConstraint=eastwest;newEdgeStyle={&quot;edgeStyle&quot;:&quot;elbowEdgeStyle&quot;,&quot;elbow&quot;:&quot;vertical&quot;,&quot;curved&quot;:0,&quot;rounded&quot;:0};" vertex="1" parent="1">
          <mxGeometry x="450" y="1250" width="100" height="220" as="geometry" />
        </mxCell>
        <mxCell id="Ypr0-TqBFgz9A--C2eyJ-93" value="" style="html=1;points=[];perimeter=orthogonalPerimeter;outlineConnect=0;targetShapes=umlLifeline;portConstraint=eastwest;newEdgeStyle={&quot;edgeStyle&quot;:&quot;elbowEdgeStyle&quot;,&quot;elbow&quot;:&quot;vertical&quot;,&quot;curved&quot;:0,&quot;rounded&quot;:0};" vertex="1" parent="Ypr0-TqBFgz9A--C2eyJ-92">
          <mxGeometry x="45" y="70" width="10" height="110" as="geometry" />
        </mxCell>
        <mxCell id="Ypr0-TqBFgz9A--C2eyJ-94" value="Inicio" style="html=1;verticalAlign=bottom;startArrow=oval;endArrow=block;startSize=8;edgeStyle=elbowEdgeStyle;elbow=vertical;curved=0;rounded=0;" edge="1" parent="Ypr0-TqBFgz9A--C2eyJ-92" target="Ypr0-TqBFgz9A--C2eyJ-93">
          <mxGeometry relative="1" as="geometry">
            <mxPoint x="-15" y="70" as="sourcePoint" />
          </mxGeometry>
        </mxCell>
        <mxCell id="Ypr0-TqBFgz9A--C2eyJ-95" value="Sistema" style="shape=umlLifeline;perimeter=lifelinePerimeter;whiteSpace=wrap;html=1;container=0;dropTarget=0;collapsible=0;recursiveResize=0;outlineConnect=0;portConstraint=eastwest;newEdgeStyle={&quot;edgeStyle&quot;:&quot;elbowEdgeStyle&quot;,&quot;elbow&quot;:&quot;vertical&quot;,&quot;curved&quot;:0,&quot;rounded&quot;:0};" vertex="1" parent="1">
          <mxGeometry x="630" y="1250" width="100" height="220" as="geometry" />
        </mxCell>
        <mxCell id="Ypr0-TqBFgz9A--C2eyJ-96" value="" style="html=1;points=[];perimeter=orthogonalPerimeter;outlineConnect=0;targetShapes=umlLifeline;portConstraint=eastwest;newEdgeStyle={&quot;edgeStyle&quot;:&quot;elbowEdgeStyle&quot;,&quot;elbow&quot;:&quot;vertical&quot;,&quot;curved&quot;:0,&quot;rounded&quot;:0};" vertex="1" parent="Ypr0-TqBFgz9A--C2eyJ-95">
          <mxGeometry x="45" y="80" width="10" height="100" as="geometry" />
        </mxCell>
        <mxCell id="Ypr0-TqBFgz9A--C2eyJ-97" value="Selecciona la opcion&lt;div&gt;de modificar informacion&lt;/div&gt;&lt;div&gt;de la cuenta&lt;/div&gt;" style="html=1;verticalAlign=bottom;endArrow=block;edgeStyle=elbowEdgeStyle;elbow=horizontal;curved=0;rounded=0;" edge="1" parent="1">
          <mxGeometry relative="1" as="geometry">
            <mxPoint x="510" y="1350" as="sourcePoint" />
            <Array as="points">
              <mxPoint x="595" y="1350" />
            </Array>
            <mxPoint x="680.0000000000001" y="1350" as="targetPoint" />
          </mxGeometry>
        </mxCell>
        <mxCell id="Ypr0-TqBFgz9A--C2eyJ-98" value="Muestra formulario con la&lt;div&gt;informacion del administrador&lt;/div&gt;" style="html=1;verticalAlign=bottom;endArrow=open;dashed=1;endSize=8;edgeStyle=elbowEdgeStyle;elbow=vertical;curved=0;rounded=0;" edge="1" parent="1">
          <mxGeometry relative="1" as="geometry">
            <mxPoint x="510" y="1410" as="targetPoint" />
            <Array as="points">
              <mxPoint x="605" y="1410" />
            </Array>
            <mxPoint x="680" y="1410" as="sourcePoint" />
          </mxGeometry>
        </mxCell>
        <mxCell id="Ypr0-TqBFgz9A--C2eyJ-99" value="&lt;font style=&quot;font-size: 18px;&quot;&gt;&lt;b&gt;Seleccionar Modificar Informacion&lt;/b&gt;&lt;/font&gt;" style="text;whiteSpace=wrap;html=1;" vertex="1" parent="1">
          <mxGeometry x="415" y="1200" width="370" height="40" as="geometry" />
        </mxCell>
        <mxCell id="Ypr0-TqBFgz9A--C2eyJ-100" value="Administrador" style="shape=umlLifeline;perimeter=lifelinePerimeter;whiteSpace=wrap;html=1;container=0;dropTarget=0;collapsible=0;recursiveResize=0;outlineConnect=0;portConstraint=eastwest;newEdgeStyle={&quot;edgeStyle&quot;:&quot;elbowEdgeStyle&quot;,&quot;elbow&quot;:&quot;vertical&quot;,&quot;curved&quot;:0,&quot;rounded&quot;:0};" vertex="1" parent="1">
          <mxGeometry x="790" y="1250" width="100" height="250" as="geometry" />
        </mxCell>
        <mxCell id="Ypr0-TqBFgz9A--C2eyJ-101" value="" style="html=1;points=[];perimeter=orthogonalPerimeter;outlineConnect=0;targetShapes=umlLifeline;portConstraint=eastwest;newEdgeStyle={&quot;edgeStyle&quot;:&quot;elbowEdgeStyle&quot;,&quot;elbow&quot;:&quot;vertical&quot;,&quot;curved&quot;:0,&quot;rounded&quot;:0};" vertex="1" parent="Ypr0-TqBFgz9A--C2eyJ-100">
          <mxGeometry x="45" y="70" width="10" height="150" as="geometry" />
        </mxCell>
        <mxCell id="Ypr0-TqBFgz9A--C2eyJ-102" value="Inicio" style="html=1;verticalAlign=bottom;startArrow=oval;endArrow=block;startSize=8;edgeStyle=elbowEdgeStyle;elbow=vertical;curved=0;rounded=0;" edge="1" parent="Ypr0-TqBFgz9A--C2eyJ-100" target="Ypr0-TqBFgz9A--C2eyJ-101">
          <mxGeometry relative="1" as="geometry">
            <mxPoint x="-15" y="70" as="sourcePoint" />
          </mxGeometry>
        </mxCell>
        <mxCell id="Ypr0-TqBFgz9A--C2eyJ-103" value="Sistema" style="shape=umlLifeline;perimeter=lifelinePerimeter;whiteSpace=wrap;html=1;container=0;dropTarget=0;collapsible=0;recursiveResize=0;outlineConnect=0;portConstraint=eastwest;newEdgeStyle={&quot;edgeStyle&quot;:&quot;elbowEdgeStyle&quot;,&quot;elbow&quot;:&quot;vertical&quot;,&quot;curved&quot;:0,&quot;rounded&quot;:0};" vertex="1" parent="1">
          <mxGeometry x="970" y="1250" width="100" height="250" as="geometry" />
        </mxCell>
        <mxCell id="Ypr0-TqBFgz9A--C2eyJ-104" value="" style="html=1;points=[];perimeter=orthogonalPerimeter;outlineConnect=0;targetShapes=umlLifeline;portConstraint=eastwest;newEdgeStyle={&quot;edgeStyle&quot;:&quot;elbowEdgeStyle&quot;,&quot;elbow&quot;:&quot;vertical&quot;,&quot;curved&quot;:0,&quot;rounded&quot;:0};" vertex="1" parent="Ypr0-TqBFgz9A--C2eyJ-103">
          <mxGeometry x="45" y="80" width="10" height="140" as="geometry" />
        </mxCell>
        <mxCell id="Ypr0-TqBFgz9A--C2eyJ-105" value="Valida los datos" style="html=1;verticalAlign=bottom;endArrow=block;edgeStyle=elbowEdgeStyle;elbow=vertical;curved=1;rounded=0;strokeWidth=1;entryX=0.5;entryY=0.2;entryDx=0;entryDy=0;entryPerimeter=0;" edge="1" parent="Ypr0-TqBFgz9A--C2eyJ-103" source="Ypr0-TqBFgz9A--C2eyJ-103" target="Ypr0-TqBFgz9A--C2eyJ-104">
          <mxGeometry relative="1" as="geometry">
            <mxPoint x="50" y="100" as="sourcePoint" />
            <Array as="points">
              <mxPoint x="130" y="80" />
            </Array>
            <mxPoint x="70" y="110" as="targetPoint" />
          </mxGeometry>
        </mxCell>
        <mxCell id="Ypr0-TqBFgz9A--C2eyJ-106" value="Edita la informaci칩n de su cuenta" style="html=1;verticalAlign=bottom;endArrow=block;edgeStyle=elbowEdgeStyle;elbow=vertical;curved=0;rounded=0;" edge="1" parent="1" source="Ypr0-TqBFgz9A--C2eyJ-101" target="Ypr0-TqBFgz9A--C2eyJ-104">
          <mxGeometry relative="1" as="geometry">
            <mxPoint x="945" y="1340" as="sourcePoint" />
            <Array as="points">
              <mxPoint x="930" y="1330" />
            </Array>
          </mxGeometry>
        </mxCell>
        <mxCell id="Ypr0-TqBFgz9A--C2eyJ-107" value="&lt;div style=&quot;&quot;&gt;&lt;font style=&quot;font-size: 11px;&quot; face=&quot;trebuchet ms, verdana, arial, sans-serif&quot; color=&quot;#1f2937&quot;&gt;[Datos correctos&lt;/font&gt;]&lt;/div&gt;&lt;div style=&quot;&quot;&gt;Guarda los cambios&amp;nbsp;&lt;/div&gt;" style="html=1;verticalAlign=bottom;endArrow=open;dashed=1;endSize=8;edgeStyle=elbowEdgeStyle;elbow=vertical;curved=0;rounded=0;align=center;" edge="1" parent="1">
          <mxGeometry relative="1" as="geometry">
            <mxPoint x="850" y="1400" as="targetPoint" />
            <Array as="points">
              <mxPoint x="945" y="1400" />
            </Array>
            <mxPoint x="1020" y="1400" as="sourcePoint" />
          </mxGeometry>
        </mxCell>
        <mxCell id="Ypr0-TqBFgz9A--C2eyJ-108" value="&lt;font style=&quot;font-size: 18px;&quot;&gt;&lt;b&gt;Cambiar los datos personales&lt;/b&gt;&lt;/font&gt;" style="text;whiteSpace=wrap;html=1;" vertex="1" parent="1">
          <mxGeometry x="770" y="1200" width="350" height="40" as="geometry" />
        </mxCell>
        <mxCell id="Ypr0-TqBFgz9A--C2eyJ-109" value="&lt;div style=&quot;&quot;&gt;&lt;font style=&quot;font-size: 11px;&quot; face=&quot;trebuchet ms, verdana, arial, sans-serif&quot; color=&quot;#1f2937&quot;&gt;[Datos Incorrectos&lt;/font&gt;]&lt;/div&gt;&lt;div style=&quot;&quot;&gt;Muestra mensaje de error&lt;/div&gt;" style="html=1;verticalAlign=bottom;endArrow=open;dashed=1;endSize=8;edgeStyle=elbowEdgeStyle;elbow=vertical;curved=0;rounded=0;align=center;" edge="1" parent="1">
          <mxGeometry relative="1" as="geometry">
            <mxPoint x="850" y="1450" as="targetPoint" />
            <Array as="points">
              <mxPoint x="945" y="1450" />
            </Array>
            <mxPoint x="1020" y="1450" as="sourcePoint" />
          </mxGeometry>
        </mxCell>
      </root>
    </mxGraphModel>
  </diagram>
</mxfile>
